<svg width="72" height="72" viewBox="0 0 72 72" fill="none" xmlns="http://www.w3.org/2000/svg">
<g clip-path="url(#clip0_2553_17)">
<path d="M62.9998 25.8469V8.55C63.0024 7.72301 62.8416 6.90366 62.5267 6.13896C62.2118 5.37426 61.749 4.67929 61.1648 4.09393C60.5806 3.50857 59.8866 3.04435 59.1225 2.72792C58.3585 2.41149 57.5394 2.24907 56.7124 2.25H39.4254C38.2919 2.25234 37.205 2.70154 36.4006 3.50016L1.84056 38.0503C0.661868 39.2328 0 40.8343 0 42.5039C0 44.1735 0.661868 45.775 1.84056 46.9575L18.2937 63.4106C19.4757 64.5896 21.0771 65.2517 22.7466 65.2517C24.4161 65.2517 26.0174 64.5896 27.1995 63.4106L61.7496 28.8717C62.5485 28.0675 62.9978 26.9805 62.9998 25.8469V25.8469ZM49.4998 20.25C48.6098 20.25 47.7397 19.9861 46.9997 19.4916C46.2597 18.9972 45.6829 18.2943 45.3423 17.4721C45.0017 16.6498 44.9126 15.745 45.0863 14.8721C45.2599 13.9992 45.6885 13.1974 46.3178 12.568C46.9471 11.9387 47.749 11.5101 48.6219 11.3365C49.4948 11.1628 50.3996 11.252 51.2219 11.5925C52.0441 11.9331 52.7469 12.5099 53.2414 13.2499C53.7359 13.99 53.9998 14.86 53.9998 15.75C53.9998 16.9435 53.5257 18.0881 52.6818 18.932C51.8379 19.7759 50.6933 20.25 49.4998 20.25Z" fill="#1AA090"/>
<path d="M69.7502 9C69.1535 9 68.5812 9.23705 68.1592 9.65901C67.7373 10.081 67.5002 10.6533 67.5002 11.25V29.1614L30.7535 65.9095C30.5358 66.1164 30.3616 66.3647 30.2414 66.6399C30.1212 66.9151 30.0573 67.2116 30.0534 67.5119C30.0496 67.8122 30.1059 68.1103 30.219 68.3884C30.3322 68.6666 30.4999 68.9194 30.7122 69.1317C30.9246 69.3441 31.1773 69.5118 31.4555 69.6249C31.7337 69.7381 32.0317 69.7944 32.332 69.7905C32.6323 69.7867 32.9288 69.7228 33.204 69.6025C33.4792 69.4823 33.7276 69.3082 33.9344 69.0905L70.7782 32.2467C71.1701 31.853 71.4799 31.3853 71.6897 30.8709C71.8995 30.3565 72.005 29.8055 72.0002 29.25V11.25C72.0002 10.6533 71.7632 10.081 71.3412 9.65901C70.9192 9.23705 70.3469 9 69.7502 9V9Z" fill="#1AA090"/>
</g>
<defs>
<clipPath id="clip0_2553_17">
<rect width="72" height="72" fill="white"/>
</clipPath>
</defs>
</svg>
