<svg width="72" height="72" viewBox="0 0 72 72" fill="none" xmlns="http://www.w3.org/2000/svg">
<path d="M60.435 24.8099L65.124 20.1209L60.882 15.8789L55.758 20.9999C52.608 19.1099 48.936 17.9999 45 17.9999C33.423 17.9999 24 27.4199 24 38.9999C24 50.5799 33.423 59.9999 45 59.9999C56.577 59.9999 66 50.5799 66 38.9999C65.9976 33.738 64.0103 28.6706 60.435 24.8099ZM45 53.9999C36.729 53.9999 30 47.2709 30 38.9999C30 30.7289 36.729 23.9999 45 23.9999C53.271 23.9999 60 30.7289 60 38.9999C60 47.2709 53.271 53.9999 45 53.9999Z" fill="#1AA090"/>
<path d="M42 30H48V42H42V30ZM39 9H51V15H39V9ZM9 24H21V30H9V24ZM9 48H21V54H9V48ZM6 36H17.97V42H6V36Z" fill="#1AA090"/>
</svg>
